# AST/ASF file generated using VICON BodyLanguage
# -----------------------------------------------
:version 1.10
:name VICON
:units
  mass 1.0
  length 0.45
  angle deg
:documentation
   .ast/.asf automatically generated from VICON data using
   VICON BodyBuilder and BodyLanguage model FoxedUp or BRILLIANT.MOD
:root
   order TX TY TZ RX RY RZ
   axis XYZ
   position 0 0 0  
   orientation 0 0 0 
:bonedata
  begin
     id 1 
     name lhipjoint
     direction 0.78388 -0.462562 0.414208 
     length 3.01181 
     axis 0 0 0  XYZ
  end
  begin
     id 2 
     name lfemur
     direction 0.34202 -0.939693 0  
     length 6.04673  
     axis 0 0 20  XYZ
    dof rx ry rz
    limits (-160.0 20.0)
           (-70.0 70.0)
           (-60.0 70.0)
  end
  begin
     id 3 
     name ltibia
     direction 0.34202 -0.939693 0   
     length 7.211   
     axis 0 0 20   XYZ
    dof rx
    limits (-10.0 170.0)
  end
  begin
     id 4 
     name lfoot
     direction 0.121887 -0.334882 0.934344   
     length 2.13567   
     axis -90 7.62852e-016 20   XYZ
    dof rx rz
    limits (-45.0 90.0)
           (-70.0 20.0)
  end
  begin
     id 5 
     name ltoes
     direction 1.53555e-011 -4.2179e-011 1   
     length 1.05957   
     axis -90 7.62852e-016 20   XYZ
    dof rx
    limits (-90.0 20.0)
  end
  begin
     id 6 
     name rhipjoint
     direction -0.769387 -0.475875 0.426129   
     length 2.92756  
     axis 0 0 0  XYZ 
  end
  begin
     id 7 
     name rfemur
     direction -0.34202 -0.939693 0   
     length 6.35468   
     axis 0 0 -20   XYZ
    dof rx ry rz
    limits (-160.0 20.0)
           (-70.0 70.0)
           (-70.0 60.0)
  end
  begin
     id 8 
     name rtibia
     direction -0.34202 -0.939693 0   
     length 7.37886   
     axis 0 0 -20   XYZ
    dof rx
    limits (-10.0 170.0)
 end
 begin
     id 9 
     name rfoot
     direction -0.101763 -0.279592 0.954711   
     length 2.21478  
     axis -90 -7.62852e-016 -20   XYZ
    dof rx rz
    limits (-45.0 90.0)
           (-20.0 70.0)
  end
  begin
     id 10 
     name rtoes
     direction -1.53494e-011 -4.21851e-011 1   
     length 1.10506   
     axis -90 -7.62852e-016 -20   XYZ
    dof rx
    limits (-90.0 20.0)
  end
  begin
     id 11 
     name lowerback
     direction 0.00747405 0.999267 0.0375481   
     length 2.13259   
     axis 0 0 0   XYZ
    dof rx ry rz
    limits (-20.0 45.0)
           (-30.0 30.0)
           (-30.0 30.0)
  end
  begin
     id 12 
     name upperback
     direction 0.00661626 0.996177 0.0871029   
     length 2.10528   
     axis 0 0 0   XYZ
    dof rx ry rz
    limits (-20.0 45.0)
           (-30.0 30.0)
           (-30.0 30.0)
  end
  begin
     id 13 
     name thorax
     direction 0.00320659 0.997679 0.0680167   
     length 2.11338   
     axis 0 0 0   XYZ
    dof rx ry rz
    limits (-20.0 45.0)
           (-30.0 30.0)
           (-30.0 30.0)
  end
  begin
     id 14 
     name lowerneck
     direction 0.0374841 0.973033 0.227602   
     length 1.42765   
     axis 0 0 0   XYZ
    dof rx ry rz
    limits (-20.0 45.0)
           (-30.0 30.0)
           (-30.0 30.0)
  end
  begin
     id 15 
     name upperneck
     direction 0.00481585 0.989155 -0.146795   
     length 1.47593   
     axis 0 0 0   XYZ
    dof rx ry rz
    limits (-20.0 45.0)
           (-30.0 30.0)
           (-30.0 30.0)
  end
  begin
     id 16
     name head
     direction -0.00292522 0.997206 -0.0746423  
     length 1.48116  
     axis 0 0 0   XYZ
    dof rx ry rz
    limits (-20.0 45.0)
           (-30.0 30.0)
           (-30.0 30.0)
  end
  begin
     id 17 
     name lclavicle
     direction 0.951444 0.305606 0.0368784  
     length 3.01855  
     axis 0 0 0   XYZ
    dof ry rz
    limits (-20.0 10.0)
           (0.0 20.0)
  end
  begin
     id 18 
     name lhumerus
     direction 1 -4.48977e-011 2.61664e-027   
     length 5.52731   
     axis 180 -30 -90   XYZ
    dof rx ry rz
    limits (-60.0 90.0)
           (-90.0 90.0)
           (-90.0 90.0)
  end
  begin
     id 19
     name lradius
     direction 1 -4.48944e-011 8.22157e-027   
     length 3.11059   
     axis 180 -30 -90   XYZ
    dof rx
    limits (-10.0 170.0)
  end
  begin
     id 20
     name lwrist
     direction 1 -4.48976e-011 1.5779e-026   
     length 1.5553   
     axis -1.15221e-014 90 90   XYZ
    dof ry
    limits (-180.0 0.0)
 end
  begin
     id 21 
     name lhand
     direction 1 -4.49025e-011 3.1558e-026   
     length 0.419626   
     axis -2.01367e-014 90 90   XYZ
    dof rx rz
    limits (-90.0 90.0)
           (-45.0 45.0)
  end
  begin
     id 22 
     name lfingers
     direction 1 -4.4904e-011 6.31161e-026   
     length 0.338313   
     axis -4.02734e-014 90 90   XYZ
    dof rx
    limits (0.0 90.0)
  end
  begin
     id 23
     name lthumb
     direction 0.707107 -6.35004e-011 0.707107   
     length 0.485752   
     axis -90 45 2.85299e-015   XYZ
    dof rx rz
    limits (-45.0 45.0)
           (-45.0 45.0)
  end
  begin
     id 24 
     name rclavicle
     direction -0.968876 0.223791 0.105816   
     length 3.04177  
     axis 0 0 0   XYZ 
    dof ry rz
    limits (-10.0 20.0)
           (-20.0 0.0)
  end
  begin
     id 25 
     name rhumerus
     direction -1 -4.48962e-011 -1.01384e-027  
     length 5.25396   
     axis 180 30 90   XYZ
    dof rx ry rz
    limits (-90.0 60.0)
           (-90.0 90.0)
           (-90.0 90.0)
  end
  begin
     id 26 
     name rradius
     direction -1 -4.48955e-011 8.88542e-027   
     length 3.10567   
     axis 180 30 90   XYZ
    dof rx
    limits (-10.0 170.0)
  end
  begin
     id 27 
     name rwrist
     direction -1 -4.48994e-011 1.5779e-026   
     length 1.55283   
     axis -1.15221e-014 -90 -90   XYZ
    dof ry
    limits (-180.0 0.0)
  end
  begin
     id 28
     name rhand
     direction -1 -4.48891e-011 3.1558e-026   
     length 0.498676   
     axis -2.01367e-014 -90 -90   XYZ
    dof rx rz
    limits (-90.0 90.0)
           (-45.0 45.0)
  end
  begin
     id 29
     name rfingers
     direction -1 -4.48972e-011 6.31161e-026   
     length 0.402045   
     axis -4.02734e-014 -90 -90   XYZ
    dof rx
    limits (0.0 90.0)
  end
  begin
     id 30
     name rthumb
     direction -0.707107 -6.34849e-011 0.707107   
     length 0.577259   
     axis -90 -45 -2.85299e-015   XYZ
    dof rx rz
    limits (-45.0 45.0)
           (-45.0 45.0)
  end
:hierarchy
  begin
    root lhipjoint rhipjoint lowerback
    lhipjoint lfemur
    lfemur ltibia
    ltibia lfoot
    lfoot ltoes
    rhipjoint rfemur
    rfemur rtibia
    rtibia rfoot
    rfoot rtoes
    lowerback upperback
    upperback thorax
    thorax lowerneck lclavicle rclavicle
    lowerneck upperneck
    upperneck head
    lclavicle lhumerus
    lhumerus lradius
    lradius lwrist
    lwrist lhand lthumb
    lhand lfingers
    rclavicle rhumerus
    rhumerus rradius
    rradius rwrist
    rwrist rhand rthumb
    rhand rfingers
  end

#!OML:ASF H:\Pregnant\Project 1\Capture day 1\Session 1\femalepreg.ASF
:FULLY-SPECIFIED
:DEGREES
121
root 2.32671 14.9159 37.8051 -157.782 10.4161 -179.879
lowerback -14.7372 -0.384657 7.24741
upperback -8.29829 -0.236129 0.429046
thorax -0.656423 0.150864 -3.66984
lowerneck -22.3932 8.55385 10.291
upperneck 29.3819 12.1614 -6.84693
head 15.0778 5.7997 -2.00955
rclavicle 8.68441e-015 -8.34896e-015
rhumerus -63.7991 14.5047 -95.8497
rradius 97.1527
rwrist -17.376
rhand -31.4817 -25.652
rfingers 7.12502
rthumb -4.74825 -55.5788
lclavicle 8.68441e-015 -8.34896e-015
lhumerus -54.6153 -3.91026 82.2704
lradius 100.099
lwrist 38.7493
lhand -28.8592 -19.7081
lfingers 7.12502
lthumb -2.21574 10.2601
rfemur -28.8521 24.7241 20.3071
rtibia 36.9579
rfoot -25.1237 -15.9942
rtoes -6.58433
lfemur -67.5013 -3.1642 -19.1257
ltibia 61.979
lfoot -3.76799 0.949269
ltoes -17.2562
122
root 2.30997 14.9107 37.7067 -157.621 10.8934 -179.691
lowerback -14.9746 -0.299081 7.53104
upperback -8.28297 -0.173947 0.482999
thorax -0.516101 0.181703 -3.76449
lowerneck -22.1283 8.68788 10.3705
upperneck 29.1167 12.3663 -6.98939
head 14.9422 5.88016 -2.04627
rclavicle -3.32964e-015 1.70955e-014
rhumerus -64.2065 14.5488 -95.6793
rradius 97.291
rwrist -17.7509
rhand -31.8423 -26.1117
rfingers 7.12502
rthumb -5.09647 -56.0304
lclavicle -3.32964e-015 1.70955e-014
lhumerus -54.3043 -4.14557 82.0759
lradius 99.3131
lwrist 39.1373
lhand -28.6897 -19.7666
lfingers 7.12502
lthumb -2.05204 10.2033
rfemur -28.4396 24.814 20.3418
rtibia 36.5528
rfoot -25.2532 -15.7562
rtoes -6.91712
lfemur -67.2342 -3.193 -18.3755
ltibia 60.2928
lfoot -3.90853 1.15086
ltoes -17.4692
123
root 2.2933 14.9045 37.6059 -157.442 11.3778 -179.487
lowerback -15.23 -0.209299 7.79968
upperback -8.27786 -0.103879 0.553749
thorax -0.375757 0.219036 -3.83136
lowerneck -21.8451 8.81058 10.4244
upperneck 28.8601 12.5622 -7.1119
head 14.8031 5.95895 -2.07328
rclavicle -3.02277e-014 1.98785e-015
rhumerus -64.5899 14.6326 -95.5049
rradius 97.3768
rwrist -18.2068
rhand -32.1714 -26.558
rfingers 7.12502
rthumb -5.41426 -56.4688
lclavicle -3.02277e-014 1.98785e-015
lhumerus -53.9761 -4.37622 81.931
lradius 98.3892
lwrist 39.3661
lhand -28.4949 -19.8622
lfingers 7.12502
lthumb -1.86391 10.1094
rfemur -28.0342 24.907 20.3812
rtibia 36.1439
rfoot -25.3792 -15.5072
rtoes -7.26142
lfemur -66.9476 -3.22255 -17.5856
ltibia 58.5919
lfoot -4.013 1.33546
ltoes -17.5588
124
root 2.27655 14.8973 37.5031 -157.242 11.8489 -179.284
lowerback -15.5076 -0.101652 8.05657
upperback -8.27554 -0.010654 0.601931
thorax -0.223636 0.269167 -3.91143
lowerneck -21.6198 8.92185 10.5032
upperneck 28.6359 12.717 -7.20724
head 14.6873 6.02442 -2.1002
rclavicle 6.75868e-015 2.98177e-014
rhumerus -64.9082 14.674 -95.3366
rradius 97.3955
rwrist -18.7403
rhand -32.4336 -26.9325
rfingers 7.12502
rthumb -5.66736 -56.8367
lclavicle 6.75868e-015 2.98177e-014
lhumerus -53.5934 -4.67726 81.8123
lradius 97.3267
lwrist 39.4326
lhand -28.2796 -19.945
lfingers 7.12502
lthumb -1.65599 10.0283
rfemur -27.6522 24.9921 20.4086
rtibia 35.7474
rfoot -25.5106 -15.2642
rtoes -7.60916
lfemur -66.6557 -3.27787 -16.772
ltibia 56.8851
lfoot -4.06836 1.50544
ltoes -17.5345
125
root 2.26001 14.8885 37.3992 -157.017 12.2871 -179.092
lowerback -15.7927 0.0048679 8.28876
upperback -8.29706 0.0883606 0.639147
thorax -0.0919014 0.323799 -3.9876
lowerneck -21.4045 9.01668 10.5867
upperneck 28.4414 12.8379 -7.26862
head 14.5812 6.08091 -2.12105
rclavicle -8.13775e-015 3.57812e-015
rhumerus -65.1949 14.6987 -95.1796
rradius 97.3435
rwrist -19.3266
rhand -32.6428 -27.2404
rfingers 7.12502
rthumb -5.86934 -57.1392
lclavicle -8.13775e-015 3.57812e-015
lhumerus -53.1875 -5.02497 81.7236
lradius 96.1223
lwrist 39.3315
lhand -28.0631 -20.0117
lfingers 7.12502
lthumb -1.44687 9.96313
rfemur -27.3051 25.059 20.423
rtibia 35.3739
rfoot -25.6492 -15.0352
rtoes -7.96128
lfemur -66.375 -3.36689 -15.9434
ltibia 55.1849
lfoot -4.07206 1.65274
ltoes -17.3986
126
root 2.24364 14.8783 37.2937 -156.781 12.6958 -178.912
lowerback -16.0732 0.112548 8.49561
upperback -8.34207 0.197074 0.658951
thorax 0.0138632 0.384017 -4.06578
lowerneck -21.2031 9.09024 10.6819
upperneck 28.2876 12.9158 -7.29265
head 14.4894 6.12562 -2.13739
rclavicle -2.0363e-014 3.45885e-014
rhumerus -65.4589 14.6993 -95.0397
rradius 97.2195
rwrist -19.9413
rhand -32.8306 -27.5059
rfingers 7.12502
rthumb -6.05066 -57.3995
lclavicle -2.0363e-014 3.45885e-014
lhumerus -52.7638 -5.42463 81.6606
lradius 94.7777
lwrist 39.0667
lhand -27.8372 -20.0268
lfingers 7.12502
lthumb -1.22865 9.94937
rfemur -26.9756 25.113 20.4261
rtibia 35.026
rfoot -25.8017 -14.8224
rtoes -8.3147
lfemur -66.0915 -3.489 -15.111
ltibia 53.5039
lfoot -4.0451 1.79128
ltoes -17.2663
127
root 2.22765 14.8667 37.1866 -156.542 13.0802 -178.745
lowerback -16.3493 0.210048 8.66083
upperback -8.40695 0.302261 0.678951
thorax 0.096448 0.444014 -4.1202
lowerneck -21.0044 9.14877 10.7763
upperneck 28.1659 12.9693 -7.28983
head 14.4074 6.16409 -2.1479
rclavicle -1.30452e-015 9.93923e-015
rhumerus -65.6951 14.7176 -94.9101
rradius 97.017
rwrist -20.5521
rhand -32.9983 -27.7256
rfingers 7.12502
rthumb -6.21254 -57.6145
lclavicle -1.30452e-015 9.93923e-015
lhumerus -52.3242 -5.83423 81.6313
lradius 93.2864
lwrist 38.648
lhand -27.5932 -19.9862
lfingers 7.12502
lthumb -0.992993 9.99126
rfemur -26.6607 25.1582 20.4182
rtibia 34.7127
rfoot -25.9667 -14.6312
rtoes -8.68629
lfemur -65.8009 -3.63428 -14.2865
ltibia 51.8565
lfoot -4.00784 1.92804
ltoes -17.13
128
root 2.21202 14.8537 37.0772 -156.326 13.4562 -178.586
lowerback -16.6015 0.296887 8.79526
upperback -8.48987 0.402894 0.702676
thorax 0.146997 0.502088 -4.15358
lowerneck -20.7724 9.19088 10.8671
upperneck 28.0697 13.0045 -7.26433
head 14.3253 6.20011 -2.15381
rclavicle 1.80397e-014 1.59028e-015
rhumerus -65.9281 14.7727 -94.799
rradius 96.7427
rwrist -21.1231
rhand -33.1517 -27.9307
rfingers 7.12502
rthumb -6.36068 -57.8152
lclavicle 1.80397e-014 1.59028e-015
lhumerus -51.8927 -6.23217 81.6324
lradius 91.6503
lwrist 38.1034
lhand -27.3297 -19.8984
lfingers 7.12502
lthumb -0.738569 10.0801
rfemur -26.3253 25.2052 20.4135
rtibia 34.4376
rfoot -26.1485 -14.4581
rtoes -9.07113
lfemur -65.4687 -3.79253 -13.4789
ltibia 50.2575
lfoot -3.99246 2.08791
ltoes -17.0756
129
root 2.19685 14.8388 36.9677 -156.097 13.7722 -178.454
lowerback -16.8569 0.355917 8.87994
upperback -8.59439 0.478977 0.727123
thorax 0.173297 0.549834 -4.16182
lowerneck -20.554 9.22512 10.9583
upperneck 28.0055 13.023 -7.21045
head 14.2559 6.23265 -2.15147
rclavicle 9.62863e-015 -9.93923e-015
rhumerus -66.1223 14.8499 -94.6974
rradius 96.3927
rwrist -21.622
rhand -33.2577 -28.1127
rfingers 7.12502
rthumb -6.46301 -57.9941
lclavicle 9.62863e-015 -9.93923e-015
lhumerus -51.4431 -6.62118 81.6609
lradius 89.8701
lwrist 37.4599
lhand -27.0597 -19.7656
lfingers 7.12502
lthumb -0.477757 10.2136
rfemur -26.0162 25.2319 20.3878
rtibia 34.1866
rfoot -26.322 -14.3258
rtoes -9.46661
lfemur -65.1724 -3.99626 -12.7029
ltibia 48.7234
lfoot -3.98766 2.26767
ltoes -17.1582
130
root 2.18221 14.8222 36.8588 -155.846 14.02 -178.355
lowerback -17.1222 0.386165 8.91267
upperback -8.72161 0.53 0.747811
thorax 0.177351 0.587282 -4.14879
lowerneck -20.3524 9.24749 11.0498
upperneck 27.9696 13.0171 -7.12781
head 14.1972 6.25818 -2.14223
rclavicle 1.95679e-014 1.59028e-014
rhumerus -66.2698 14.9379 -94.607
rradius 95.9702
rwrist -22.0272
rhand -33.3208 -28.3021
rfingers 7.12502
rthumb -6.52396 -58.1816
lclavicle 1.95679e-014 1.59028e-014
lhumerus -50.9739 -7.00871 81.7136
lradius 87.9473
lwrist 36.7598
lhand -26.7895 -19.6231
lfingers 7.12502
lthumb -0.216805 10.3566
rfemur -25.7481 25.239 20.3364
rtibia 33.9663
rfoot -26.4796 -14.2456
rtoes -9.8638
lfemur -64.9341 -4.23568 -11.9773
ltibia 47.2697
lfoot -4.00536 2.46183
ltoes -17.2654
131
root 2.16805 14.8056 36.7454 -155.664 14.2924 -178.242
lowerback -17.3556 0.4082 8.92656
upperback -8.84401 0.573915 0.792906
thorax 0.169059 0.621267 -4.1003
lowerneck -20.0821 9.25841 11.1073
upperneck 27.9401 13.0168 -7.02856
head 14.1231 6.28924 -2.12247
rclavicle 1.1281e-014 -1.51076e-014
rhumerus -66.4194 15.1046 -94.5237
rradius 95.4948
rwrist -22.3443
rhand -33.3392 -28.5768
rfingers 7.12502
rthumb -6.54166 -58.4558
lclavicle 1.1281e-014 -1.51076e-014
lhumerus -50.539 -7.32048 81.8103
lradius 85.8902
lwrist 36.0243
lhand -26.5532 -19.5133
lfingers 7.12502
lthumb 0.0114735 10.4665
rfemur -25.3819 25.2828 20.3203
rtibia 33.7556
rfoot -26.6379 -14.1793
rtoes -10.2801
lfemur -64.6029 -4.44296 -11.3092
ltibia 45.9241
lfoot -4.10894 2.70585
ltoes -17.2583
132
root 2.15453 14.7875 36.6323 -155.464 14.4943 -178.156
lowerback -17.6044 0.403701 8.90211
upperback -8.98831 0.594147 0.833619
thorax 0.141964 0.645687 -4.03891
lowerneck -19.8157 9.25553 11.1589
upperneck 27.931 12.9909 -6.89668
head 14.0525 6.31313 -2.09418
rclavicle -6.41081e-015 3.06128e-014
rhumerus -66.5316 15.2755 -94.454
rradius 94.9669
rwrist -22.5903
rhand -33.2777 -28.9209
rfingers 7.12502
rthumb -6.48233 -58.8017
lclavicle -6.41081e-015 3.06128e-014
lhumerus -50.104 -7.61762 81.929
lradius 83.7048
lwrist 35.2827
lhand -26.34 -19.4114
lfingers 7.12502
lthumb 0.217333 10.5682
rfemur -25.042 25.3102 20.2897
rtibia 33.5624
rfoot -26.7778 -14.1677
rtoes -10.7138
lfemur -64.339 -4.66648 -10.7247
ltibia 44.6981
lfoot -4.24072 2.95009
ltoes -17.1144
